HIERARCHY
ROOT Hips
{
	OFFSET 0.00000 0.00000 0.00000
	CHANNELS 6 Xposition Yposition Zposition Zrotation Yrotation Xrotation 
	JOINT LHipJoint
	{
		OFFSET 0 0 0
		CHANNELS 3 Zrotation Yrotation Xrotation
		JOINT LeftHip
		{
			OFFSET 1.84395 -1.68683 0.74144
			CHANNELS 3 Zrotation Yrotation Xrotation
			JOINT LeftKnee
			{
				OFFSET 2.27037 -6.23779 0.00000
				CHANNELS 3 Zrotation Yrotation Xrotation
				JOINT LeftAnkle
				{
					OFFSET 2.56918 -7.05877 0.00000
					CHANNELS 3 Zrotation Yrotation Xrotation
					JOINT LeftToe
					{
						OFFSET 0.22276 -0.61202 1.71784
						CHANNELS 3 Zrotation Yrotation Xrotation
						End Site
						{
							OFFSET 0.00000 -0.00000 0.91613
						}
					}
				}
			}
		}
	}
	JOINT RHipJoint
	{
		OFFSET 0 0 0
		CHANNELS 3 Zrotation Yrotation Xrotation
		JOINT RightHip
		{
			OFFSET -1.76833 -1.68684 0.74144
			CHANNELS 3 Zrotation Yrotation Xrotation
			JOINT RightKnee
			{
				OFFSET -2.49360 -6.85110 0.00000
				CHANNELS 3 Zrotation Yrotation Xrotation
				JOINT RightAnkle
				{
					OFFSET -2.55538 -7.02085 0.00000
					CHANNELS 3 Zrotation Yrotation Xrotation
					JOINT RightToe
					{
						OFFSET -0.21516 -0.59115 1.68050
						CHANNELS 3 Zrotation Yrotation Xrotation
						End Site
						{
							OFFSET -0.00000 -0.00000 0.89604
						}
					}
				}
			}
		}
	}
	JOINT lowerback
	{
		OFFSET 0 0 0
		CHANNELS 3 Zrotation Yrotation Xrotation
		JOINT Chest
		{
			OFFSET 0.06382 1.72312 -0.19613
			CHANNELS 3 Zrotation Yrotation Xrotation
			JOINT Chest2
			{
				OFFSET -0.00055 1.73507 0.23859
				CHANNELS 3 Zrotation Yrotation Xrotation
				JOINT lowerneck
				{
					OFFSET 0 0 0
					CHANNELS 3 Zrotation Yrotation Xrotation
					JOINT Neck
					{
						OFFSET 0.03638 1.65562 0.09633
						CHANNELS 3 Zrotation Yrotation Xrotation
						JOINT Head
						{
							OFFSET 0.06388 1.62807 -0.32386
							CHANNELS 3 Zrotation Yrotation Xrotation
							End Site
							{
								OFFSET 0.00995 1.67644 -0.12021
							}
						}
					}
				}
				JOINT LeftCollar
				{
					OFFSET 0 0 0
					CHANNELS 3 Zrotation Yrotation Xrotation
					JOINT LeftShoulder
					{
						OFFSET 3.09648 1.42991 0.28122
CHANNELS 3 Zrotation Xrotation Yrotation
						JOINT LeftElbow
						{
OFFSET 0 -5.118780 -0.000000
CHANNELS 3 Zrotation Xrotation Yrotation
							JOINT LeftWrist
							{
OFFSET 0 -3.599710 0.000000
CHANNELS 3 Zrotation Xrotation Yrotation
								JOINT lhand
								{
									OFFSET 0 0 0
CHANNELS 3 Zrotation Xrotation Yrotation
									JOINT LFingers
									{
OFFSET 0 -0.628770 0.000000
CHANNELS 3 Zrotation Xrotation Yrotation
										End Site
										{
OFFSET 0 -0.506930 0.000000
										}
									}
								}
								JOINT LThumb
								{
OFFSET 0 0.000000 0.000000
CHANNELS 3 Zrotation Xrotation Yrotation
									End Site
									{
OFFSET 0 -0.514670 0.514670
									}
								}
							}
						}
					}
				}
				JOINT RightCollar
				{
					OFFSET 0 0 0
					CHANNELS 3 Zrotation Yrotation Xrotation
					JOINT RightShoulder
					{
						OFFSET -3.33565 1.14597 0.05047
CHANNELS 3 Zrotation Xrotation Yrotation
						JOINT RightElbow
						{
OFFSET 0 -5.490200 0.000000
CHANNELS 3 Zrotation Xrotation Yrotation
							JOINT RightWrist
							{
OFFSET 0 -3.206590 -0.000000
CHANNELS 3 Zrotation Xrotation Yrotation
								JOINT rhand
								{
									OFFSET 0 0 0
CHANNELS 3 Zrotation Xrotation Yrotation
									JOINT RFingers
									{
OFFSET 0 -0.691880 0.000000
CHANNELS 3 Zrotation Xrotation Yrotation
										End Site
										{
OFFSET 0 -0.557810 0.000000
										}
									}
								}
								JOINT RThumb
								{
OFFSET 0 0.000000 0.000000
CHANNELS 3 Zrotation Xrotation Yrotation
									End Site
									{
OFFSET 0 -0.566330 0.566330
									}
								}
							}
						}
					}
				}
			}
		}
	}
}
MOTION
Frames: 4
Frame Time: 0.008333333333333333
0.060100 18.545700 8.556200 -7.791800 -3.720700 9.942200 0.000000 0.000000 0.000000 -16.939600 -50.832600 11.657100 1.438000 7.581500 21.449900 8.586400 29.768600 -67.099000 6.319400 -14.730800 -46.250400 0.000000 0.000000 0.000000 0.000000 0.000000 0.000000 0.000000 0.000000 0.000000 -0.000000 -0.000000 0.000000 -0.000000 -0.000000 0.000000 4.804600 1.446900 -3.135700 3.335900 2.245300 -9.664600 0.753800 0.896200 -8.382600 -14.242500 -11.425000 -3.020300 5.884300 -16.051300 24.939000 2.639300 -8.321400 10.096900 0.000000 -0.000000 0.000000 -5.959900 12.188000 1.526800 10.028400 -16.784000 1.483100 -5.434600 23.267400 7.622700 0.000000 0.000000 0.000000 -7.125000 0.000000 0.000000 -23.010000 22.392500 -13.616600 0.000000 -0.000000 0.000000 -1.575100 13.455800 11.274400 -13.182400 -21.553900 -2.519900 11.394000 31.976100 34.658900 0.000000 0.000000 0.000000 7.125000 0.000000 -0.000000 48.657100 57.749600 -17.938500
0.044566 18.556291 8.603812 -7.917565 -2.991856 10.281935 0.000000 0.000000 0.000000 -15.225205 -49.733256 9.875233 1.409883 7.510131 21.235811 7.672099 29.541002 -64.859072 6.511365 -14.906196 -47.001091 0.000000 0.000000 0.000000 0.000000 0.000000 0.000000 0.000000 0.000000 0.000000 0.000000 0.000000 0.000000 0.000000 0.000000 0.000000 4.900932 1.436879 -3.303699 3.256548 2.239537 -10.024746 0.622411 0.875852 -8.681436 -13.908627 -11.643198 -2.934797 5.635865 -16.369031 25.131504 2.463248 -8.465679 10.133166 0.000000 0.000000 0.000000 -6.021309 13.147506 -0.608551 8.814816 -14.864243 1.152762 15.180199 31.208239 11.130889 0.000000 0.000000 0.000000 -7.125000 0.000000 0.000000 -8.364201 18.500492 -5.366354 0.000000 0.000000 0.000000 -1.113251 13.799882 10.589492 -13.262110 -21.670027 -2.549283 11.649086 31.941222 34.605553 0.000000 0.000000 0.000000 7.125000 0.000000 0.000000 48.823406 57.655243 -17.904548
0.024265 18.561473 8.673174 -7.256016 -2.500591 10.835417 0.000000 0.000000 0.000000 -15.357185 -50.235860 9.479903 1.354531 7.367393 20.808521 7.605567 29.714426 -64.796433 6.582576 -14.970010 -47.277140 0.000000 0.000000 0.000000 0.000000 0.000000 0.000000 0.000000 0.000000 0.000000 0.000000 0.000000 0.000000 0.000000 0.000000 0.000000 4.169490 1.393573 -3.536081 3.036183 2.174222 -10.670362 0.805122 0.880192 -9.280359 -14.410042 -11.642572 -2.218584 6.115820 -16.525615 24.910625 2.726597 -8.561506 10.030876 0.000000 0.000000 0.000000 -6.036657 14.149000 -2.198438 8.840814 -14.906362 1.158844 18.828874 32.424275 9.403156 0.000000 0.000000 0.000000 -7.125000 0.000000 0.000000 -5.807174 20.080301 -3.478109 0.000000 0.000000 0.000000 -1.227567 14.308500 11.708490 -12.968497 -21.241065 -2.441841 10.924340 31.208154 34.682258 0.000000 0.000000 0.000000 7.125000 0.000000 0.000000 48.268113 57.870949 -17.893785
0.028062 18.559652 8.750242 -8.342243 -1.544450 11.110057 0.000000 0.000000 0.000000 -14.078210 -50.715602 9.145171 1.442658 7.593249 21.485225 7.482605 29.867356 -64.589946 6.788808 -15.151402 -48.070788 0.000000 0.000000 0.000000 0.000000 0.000000 0.000000 0.000000 0.000000 0.000000 0.000000 0.000000 0.000000 0.000000 0.000000 0.000000 5.488338 1.356456 -4.173986 3.264685 2.118420 -10.738533 0.334398 0.760301 -8.968852 -14.511293 -11.710147 -2.072830 6.378780 -16.688628 24.779282 2.819139 -8.625312 10.008969 0.000000 0.000000 0.000000 -5.944485 14.116250 -2.556617 8.798865 -14.839263 1.148042 19.079854 32.126261 9.542875 0.000000 0.000000 0.000000 -7.125000 0.000000 0.000000 -5.628122 19.917564 -3.390348 0.000000 0.000000 0.000000 -1.205731 14.249737 12.165645 -13.008452 -21.299574 -2.456364 10.832699 31.130726 34.609617 0.000000 0.000000 0.000000 7.125000 0.000000 0.000000 48.108057 57.840015 -17.776736
